<svg id="account_circle_black_24dp_4_" data-name="account_circle_black_24dp (4)" xmlns="http://www.w3.org/2000/svg" width="279.591" height="279.591" viewBox="0 0 279.591 279.591">
  <path id="Trazado_36" data-name="Trazado 36" d="M0,0H279.591V279.591H0Z" fill="none"/>
  <path id="Trazado_37" data-name="Trazado 37" d="M118.5,2a116.5,116.5,0,1,0,116.5,116.5A116.539,116.539,0,0,0,118.5,2ZM61.064,191.656c5.009-10.485,35.531-20.736,57.433-20.736s52.54,10.252,57.433,20.736a92.328,92.328,0,0,1-114.865,0Zm131.524-16.892C175.929,154.494,135.5,147.62,118.5,147.62S61.064,154.494,44.4,174.764a93.2,93.2,0,1,1,148.183,0ZM118.5,48.6A40.774,40.774,0,1,0,159.27,89.372,40.67,40.67,0,0,0,118.5,48.6Zm0,58.248a17.474,17.474,0,1,1,17.474-17.474A17.451,17.451,0,0,1,118.5,106.847Z" transform="translate(21.299 21.299)" fill="#010b53"/>
</svg>
